
<svg xmlns="http://www.w3.org/2000/svg" width="27.638" height="36.014" viewBox="0 0 27.638 36.014">
  <path id="Tracciato_1505" data-name="Tracciato 1505" d="M33.186,31.051a31.646,31.646,0,0,0-2.675-8.307,22.137,22.137,0,0,0-3.486-5.157,15.578,15.578,0,0,0-3.656-3,18.076,18.076,0,0,0,2.939-8.56,3.122,3.122,0,0,0-1.266-2.462V.7a.7.7,0,1,0-1.407,0V2.877a4.174,4.174,0,0,0-1.048-.133,3.855,3.855,0,0,0-3.193,1.6,3.855,3.855,0,0,0-3.193-1.6,4.175,4.175,0,0,0-1.052.134V.7A.7.7,0,0,0,13.74.7V3.565a3.122,3.122,0,0,0-1.263,2.459,18.078,18.078,0,0,0,2.943,8.567,15.6,15.6,0,0,0-3.643,3,22.139,22.139,0,0,0-3.486,5.157,31.645,31.645,0,0,0-2.675,8.307A2.027,2.027,0,0,0,6.91,33.325l2.41.889q.338.125.678.24l.023.007A29.1,29.1,0,0,0,16.3,35.848a.706.706,0,0,0,.1.01,29.085,29.085,0,0,0,13.077-1.644l2.41-.889A2.026,2.026,0,0,0,33.186,31.051ZM13.885,6.024a1.772,1.772,0,0,1,.889-1.474.7.7,0,0,0,.071-.043A2.683,2.683,0,0,1,16.2,4.151a2.168,2.168,0,0,1,2.31,1.756.886.886,0,0,0,1.767,0,2.168,2.168,0,0,1,2.31-1.756,2.687,2.687,0,0,1,1.338.346.7.7,0,0,0,.1.06A1.767,1.767,0,0,1,24.9,6.023a17.279,17.279,0,0,1-2.927,8.125l-.1.156a5.679,5.679,0,0,1-1.688.512,6.269,6.269,0,0,0,.445-.668,5.284,5.284,0,0,0,.5-1.15.7.7,0,1,0-1.35-.394,4.394,4.394,0,0,1-.857,1.544,4.229,4.229,0,0,1-.428.448.7.7,0,0,0-.148.175,5.674,5.674,0,0,1-1.421-.468l-.1-.156A17.279,17.279,0,0,1,13.885,6.024ZM31.405,32.006,29,32.895c-.114.042-.229.082-.343.122a29.839,29.839,0,0,0-3.216-8.308.7.7,0,0,0-1.194.744,29,29,0,0,1,3.066,8,27.737,27.737,0,0,1-10.183,1.057,8.506,8.506,0,0,1,.816-3.336.7.7,0,1,0-1.263-.619,9.9,9.9,0,0,0-.954,3.8,27.688,27.688,0,0,1-4.694-1.049c.348-1.991,1.717-8.648,4.969-12.378a.7.7,0,1,0-1.061-.924C11.533,23.918,10.1,30.5,9.681,32.848L7.4,32.005a.623.623,0,0,1-.4-.7c1.219-6.606,3.8-10.552,5.751-12.7a13.731,13.731,0,0,1,3.694-2.972,7.089,7.089,0,0,0,5.9,0c1.342.691,7.368,4.379,9.453,15.676A.623.623,0,0,1,31.405,32.006Z" transform="translate(-5.582)" fill="#153268"/>
</svg>
