<svg id="Raggruppa_1402" data-name="Raggruppa 1402" xmlns="http://www.w3.org/2000/svg" width="16.676" height="36.014" viewBox="0 0 16.676 36.014">
  <path id="Tracciato_1503" data-name="Tracciato 1503" d="M29.068,2.947c-.02-.021-.041-.041-.061-.061V.564A.564.564,0,0,0,28.443,0H14.007a.564.564,0,0,0-.564.564V2.886q-.031.03-.061.061a1.752,1.752,0,0,0-.493,1.291l1.157,31.233a.564.564,0,0,0,.563.543h5.413a.564.564,0,0,0,.564-.564V11.391a.639.639,0,1,1,1.278,0V35.45a.564.564,0,0,0,.564.564h5.413a.564.564,0,0,0,.563-.543L29.562,4.238A1.752,1.752,0,0,0,29.068,2.947ZM24.8,1.128h3.083v1.28l-.083,0h-3V1.128Zm-10.225,0h3.083V2.406h-3l-.083,0ZM14.015,4.2a.639.639,0,0,1,.639-.663h1.8v.639A2.446,2.446,0,0,1,14.1,6.614Zm6.646,5.52a1.77,1.77,0,0,0-1.2,1.674v23.5H15.152L14.147,7.741a3.575,3.575,0,0,0,3.432-3.568V3.534h3.083V9.717Zm-1.88-7.311V1.128h4.887V2.406H18.781ZM27.3,34.886H22.992v-23.5a1.77,1.77,0,0,0-1.2-1.674V3.534h3.083v.639A3.575,3.575,0,0,0,28.3,7.741ZM28.345,6.614A2.446,2.446,0,0,1,26,4.173V3.534h1.8a.639.639,0,0,1,.639.663Z" transform="translate(-12.887)" fill="#153268"/>
</svg>
