<svg xmlns="http://www.w3.org/2000/svg" width="36.014" height="18.781" viewBox="0 0 36.014 18.781">
  <path id="sneakers" d="M12.09,20.111a.528.528,0,0,0-.528.528v.607a.528.528,0,1,0,1.055,0v-.607A.528.528,0,0,0,12.09,20.111Zm23.8,2.472a2.487,2.487,0,0,0-1.606-1.354A15.792,15.792,0,0,0,32,20.722a31.4,31.4,0,0,1-7.294-2h0a12.505,12.505,0,0,1-4.023-2.744l0,0,0,0q-.144-.153-.283-.313a4.969,4.969,0,0,0-.8-.757c-.538-.431-1.636-1.428-3.1-2.819a2.153,2.153,0,0,0-1.563-.594,2.1,2.1,0,0,0-1.482.672,3.159,3.159,0,0,0-.872,1.938,4.284,4.284,0,0,0,.558,2.312,20.282,20.282,0,0,1-2.524.616c-1.786.311-3.153.257-3.655-.145a7.44,7.44,0,0,1-.641-.584.527.527,0,0,0-.749.743,8.67,8.67,0,0,0,.663.609,12.624,12.624,0,0,1,1.75,5.973c-1.777-.2-3.634-.348-5.625-.387a1.944,1.944,0,0,0-.318.02,41.842,41.842,0,0,1,.294-4.6c.346-2.61.88-2.979.984-3.027a.793.793,0,0,1,.592-.074A.528.528,0,1,0,4.2,14.539a1.865,1.865,0,0,0-1.325.129c-.781.358-1.822,1.7-1.9,9.112a1.906,1.906,0,0,0-.505.863C.34,25.1.22,25.559.106,26.01a3.416,3.416,0,0,0,3.312,4.255h21.5a.528.528,0,0,0,0-1.055H12.07V27.824a.528.528,0,1,0-1.055,0V29.21H9.048V27.824a.528.528,0,1,0-1.055,0V29.21H6.026V27.824a.528.528,0,1,0-1.055,0V29.21H3.418a2.361,2.361,0,0,1-2.289-2.942c.112-.444.232-.9.354-1.35a.861.861,0,0,1,.847-.633,80.559,80.559,0,0,1,11.193,1.177c2.263.351,4.555.707,7.035.941a.505.505,0,0,0,.054.005,58.607,58.607,0,0,0,13.125-.23,9.9,9.9,0,0,1-1.852,1.98,4.474,4.474,0,0,1-2.874,1.051H27.406a.528.528,0,1,0,0,1.055h1.605a5.531,5.531,0,0,0,3.553-1.3,8.874,8.874,0,0,0,2.6-3.218c.692-1.313,1.053-2.3.725-3.164ZM14.22,12.875a1.049,1.049,0,0,1,.742-.335,1.106,1.106,0,0,1,.8.305c.506.48,1.091,1.029,1.642,1.534a6.1,6.1,0,0,0-1.978.961,9.635,9.635,0,0,1-.856.517c-.119.06-.265.125-.434.194-.715-1.279-.689-2.347.081-3.176Zm6.154,12.45c-2.35-.231-4.533-.57-6.689-.9-1.514-.235-3.051-.473-4.647-.675a14.419,14.419,0,0,0-1.284-5.512,10.581,10.581,0,0,0,3.036-.171,17.735,17.735,0,0,0,4.26-1.263A10.569,10.569,0,0,0,16,16.225c1.235-.8,2.214-1.437,3.548.069l-1.15,1.06a.528.528,0,0,0,.715.776l1.16-1.069a11.864,11.864,0,0,0,1.146.972l-.841.942a.528.528,0,0,0,.787.7l.932-1.043a15.477,15.477,0,0,0,1.429.794l-.528.879a.528.528,0,1,0,.9.544l.591-.983a29.383,29.383,0,0,0,5.77,1.644c-1.158,1.228-3.209,1.6-6.236,1.126a3.009,3.009,0,0,0-2.984,1.341Zm13.974-.29a58.08,58.08,0,0,1-12.786.4l.57-.88a1.952,1.952,0,0,1,1.936-.872,12.68,12.68,0,0,0,4.149.075,5.078,5.078,0,0,0,3.427-2.024l.17.031a15.985,15.985,0,0,1,2.1.457c.556.208.88.451.99.741a3.156,3.156,0,0,1-.557,2.076Zm-17.92-4.2a.527.527,0,0,0-.744.051.576.576,0,0,1-.87,0,.528.528,0,0,0-.8.693,1.631,1.631,0,0,0,2.461,0,.527.527,0,0,0-.051-.744Zm1.979-.719a.527.527,0,0,0-.528.528v.607a.528.528,0,1,0,1.055,0v-.607A.528.528,0,0,0,18.408,20.111Z" transform="translate(0 -11.484)" fill="#153268"/>
</svg>
