<svg xmlns="http://www.w3.org/2000/svg" width="36.014" height="22.809" viewBox="0 0 36.014 22.809">
  <path id="Tracciato_1504" data-name="Tracciato 1504" d="M33.412,14.508V11a.6.6,0,0,0-.673-.6c-.1.012-9.892,1.2-13.133,1.2S6.573,10.416,6.474,10.4A.6.6,0,0,0,5.8,11v3.508L1.628,27.625A.6.6,0,0,0,2.1,28.4a72.751,72.751,0,0,1,16.072,4.764.6.6,0,0,0,.768-.286l.664-1.328.664,1.327a.6.6,0,0,0,.707.307l16.206-4.8a.6.6,0,0,0,.4-.758Zm-4.2,1.11c1.393-.152,2.552-.288,3.18-.362l1.7,5.347h-.68a4.206,4.206,0,0,1-4.2-4.2Zm3-1.55c-1.956.231-8.831,1.022-12,1.123v-2.4c3.179-.1,9.851-.86,12-1.114Zm-12,2.334h1.2v3a1.8,1.8,0,0,1-1.2,1.7ZM7,11.676c2.153.254,8.825,1.018,12,1.114v2.4c-3.174-.1-10.049-.892-12-1.123Zm-.179,3.58c.628.075,1.787.21,3.18.362V16.4a4.206,4.206,0,0,1-4.2,4.2h-.68Zm11.3,16.584A74.224,74.224,0,0,0,2.982,27.33L4.74,21.8H5.8a5.408,5.408,0,0,0,5.4-5.4v-.654c2.7.285,5.886.586,7.8.644V30.066Zm3,.05-.912-1.824V22.344a3.006,3.006,0,0,0,2.4-2.941v-3.15c1.685-.128,3.646-.32,5.4-.505V16.4a5.408,5.408,0,0,0,5.4,5.4h1.062l1.782,5.6Z" transform="translate(-1.6 -10.4)" fill="#153268"/>
</svg>
