<svg xmlns="http://www.w3.org/2000/svg" xmlns:xlink="http://www.w3.org/1999/xlink" width="36" height="36" viewBox="0 0 36 36">
  <defs>
    <clipPath id="clip-path">
      <rect id="Rettangolo_517" data-name="Rettangolo 517" width="36" height="36" fill="#153268"/>
    </clipPath>
  </defs>
  <g id="Gruppo_di_maschere_2" data-name="Gruppo di maschere 2" opacity="0.68" clip-path="url(#clip-path)">
    <g id="shirt" transform="translate(1.352 -0.492)">
      <g id="Raggruppa_1401" data-name="Raggruppa 1401">
        <g id="Raggruppa_1400" data-name="Raggruppa 1400">
          <path id="Tracciato_1501" data-name="Tracciato 1501" d="M21.883,3.744h2.934a.569.569,0,1,0,0-1.137H21.883a.569.569,0,0,0,0,1.137Z" transform="translate(-6.382 -0.651)" fill="#153268"/>
          <path id="Tracciato_1502" data-name="Tracciato 1502" d="M35.291,13.554,33.335,5.493a4.3,4.3,0,0,0-2.366-2.758c-1.354-.576-5.637-2.2-6.71-2.608A.566.566,0,0,0,23.9,0h-11l-.054,0-.023,0-.03,0-.027.006-.024.006-.028.009-.014,0c-.221.083-5.428,2.052-6.948,2.7a4.3,4.3,0,0,0-2.362,2.74h0l0,.01,0,.008-1.39,5.729h0l-.566,2.333a.569.569,0,0,0,.343.663l5.59,2.221V35.445a.569.569,0,0,0,.569.569H28.79a.569.569,0,0,0,.569-.569V22.307a.569.569,0,0,0-1.137,0V32.565H14.246a.569.569,0,0,0,0,1.137H28.221v1.174H8.5V33.7h3.853a.569.569,0,1,0,0-1.137H8.5V9.207a.569.569,0,0,0-.082-.294L5.548,4.17A2.746,2.746,0,0,1,6.2,3.781c1.164-.495,4.655-1.827,6.18-2.405.366,3.361,2.976,6.063,6.025,6.063s5.644-2.687,6.022-6.034c1.563.594,4.957,1.889,6.1,2.376a2.747,2.747,0,0,1,.648.388L28.3,8.912a.569.569,0,0,0-.082.294v11.2a.569.569,0,1,0,1.137,0V16.437l5.59-2.221A.569.569,0,0,0,35.291,13.554ZM7.361,15.214,2.65,13.342l.292-1.2L7.36,13.991v1.223Zm0-5.849v3.393L3.214,11.019,4.489,5.763a3.122,3.122,0,0,1,.288-.671ZM18.4,6.3c-2.248,0-4.645-2.051-4.908-5.164h9.816C23.045,4.25,20.648,6.3,18.4,6.3ZM29.359,9.365l2.583-4.272a3.4,3.4,0,0,1,.257.569h0l.01.03,0,.005.006.02,0,.007,0,.013,0,.006,0,.008v.008l1.276,5.258-4.147,1.739V9.365Zm0,5.849V13.991l4.418-1.853.292,1.2Z" transform="translate(-1.412)" fill="#153268"/>
        </g>
      </g>
    </g>
  </g>
</svg>
