
    <svg
      xmlns="http://www.w3.org/2000/svg"
      viewBox="0 0 40 40"
    >
      <defs>
        <clipPath id="clip-path">
          <rect
            id="Rettangolo_516"
            data-name="Rettangolo 516"
            width="40"
            height="40"
            fill="#44587e"
          />
        </clipPath>
      </defs>
      <g
        id="Gruppo_di_maschere_1"
        data-name="Gruppo di maschere 1"
        clip-path="url(#clip-path)"
      >
        <path
          id="smartwatch"
          d="M20.453,15.811l-1.668,1.668h-1.07a.528.528,0,0,0,0,1.055H19l.052,0,.024,0,.027,0,.027-.006.023-.006.026-.009.023-.008.024-.011.023-.011.022-.013.022-.013.023-.017.018-.014q.019-.016.037-.033l0,0L21.2,16.557a.528.528,0,0,0-.746-.746Zm2.376-.785a.528.528,0,0,0-.171.726,4.286,4.286,0,1,1-1.968-1.695.528.528,0,1,0,.415-.97,5.348,5.348,0,1,0,2.451,2.11A.528.528,0,0,0,22.829,15.026Zm6.946-2.257h-.459A5.458,5.458,0,0,0,26.9,8.6a7.222,7.222,0,0,1-.875-3.834v-.8a.528.528,0,0,0-1.055,0v.8a9.232,9.232,0,0,0,.464,3.142,5.437,5.437,0,0,0-1.567-.23H14.134a5.44,5.44,0,0,0-1.567.23,9.234,9.234,0,0,0,.464-3.142V3.1a2.052,2.052,0,0,1,2.049-2.049h7.844a2.036,2.036,0,0,1,1.632.809.528.528,0,1,0,.839-.639A3.083,3.083,0,0,0,22.926,0H15.082a3.108,3.108,0,0,0-3.1,3.1V4.769A7.222,7.222,0,0,1,11.1,8.6a5.456,5.456,0,0,0-2.425,4.535v9.739A5.456,5.456,0,0,0,11.1,27.411a7.222,7.222,0,0,1,.875,3.834v1.665a3.092,3.092,0,0,0,1.157,2.418.528.528,0,1,0,.662-.821,2.042,2.042,0,0,1-.764-1.6V31.245a9.234,9.234,0,0,0-.464-3.142,5.437,5.437,0,0,0,1.567.23h9.739a5.439,5.439,0,0,0,1.566-.23,9.235,9.235,0,0,0-.464,3.142v1.665a2.052,2.052,0,0,1-2.049,2.049H15.972a.528.528,0,1,0,0,1.055h6.953a3.108,3.108,0,0,0,3.1-3.1V31.245a7.221,7.221,0,0,1,.875-3.834,5.456,5.456,0,0,0,2.425-4.535V17.949h.445a1.9,1.9,0,0,0,1.9-1.9V14.665a1.9,1.9,0,0,0-1.9-1.9Zm-1.5,10.107a4.4,4.4,0,0,1-2.039,3.711l-.013.008a4.374,4.374,0,0,1-2.35.683H14.134a4.375,4.375,0,0,1-2.351-.683l-.012-.008a4.4,4.4,0,0,1-2.04-3.711V13.138a4.407,4.407,0,0,1,4.4-4.4h9.739a4.407,4.407,0,0,1,4.4,4.4Zm2.34-6.823a.841.841,0,0,1-.84.84H29.33v-3.07h.445a.841.841,0,0,1,.84.84Zm-6.742-5.979H14.134a3.066,3.066,0,0,0-3.063,3.063v9.739a3.066,3.066,0,0,0,3.063,3.063h9.739a3.066,3.066,0,0,0,3.063-3.063V13.138a3.066,3.066,0,0,0-3.063-3.063Zm2.008,12.8a2.01,2.01,0,0,1-2.008,2.008H14.134a2.01,2.01,0,0,1-2.008-2.008V13.138a2.01,2.01,0,0,1,2.008-2.008h9.739a2.01,2.01,0,0,1,2.008,2.008Z"
          transform="translate(-2.659 -0.492)"
          fill="#44587e"
        />
      </g>
    </svg>
